<svg version="1.1" xmlns="http://www.w3.org/2000/svg" viewBox="0 0 690.6458740234375 313.76953125" width="690.6458740234375" height="313.76953125">
  <!-- svg-source:excalidraw -->
  
  <defs>
    <style class="style-fonts">
      @font-face {
        font-family: "Virgil";
        src: url("https://excalidraw.com/Virgil.woff2");
      }
      @font-face {
        font-family: "Cascadia";
        src: url("https://excalidraw.com/Cascadia.woff2");
      }
    </style>
  </defs>
  <g transform="translate(130.40625 10) rotate(0 275.11981201171875 30)"><text x="0" y="0" font-family="Virgil, Segoe UI Emoji" font-size="16px" fill="#000000" text-anchor="start" style="white-space: pre;" direction="ltr" dominant-baseline="text-before-edge">$ ls -l .local/bin/fd</text><text x="0" y="20" font-family="Virgil, Segoe UI Emoji" font-size="16px" fill="#000000" text-anchor="start" style="white-space: pre;" direction="ltr" dominant-baseline="text-before-edge">lrwxrwxrwx 1 cxia cxia 15 Dec  3 21:52 .local/bin/fd -&gt; /usr/bin/fdfind</text><text x="0" y="40" font-family="Virgil, Segoe UI Emoji" font-size="16px" fill="#000000" text-anchor="start" style="white-space: pre;" direction="ltr" dominant-baseline="text-before-edge"></text></g><g stroke-linecap="round"><g transform="translate(162.328125 59.28515625) rotate(0 -17.676503585078706 42.92654793892987)"><path d="M0.14 -0.15 C-5.48 14.29, -28.64 71.72, -34.36 86.03 M-1.25 -1.27 C-6.99 13.34, -29.85 72.51, -35.49 87.12" stroke="#000000" stroke-width="1" fill="none"></path></g><g transform="translate(162.328125 59.28515625) rotate(0 -17.676503585078706 42.92654793892987)"><path d="M-35.15 56.57 C-36.6 64.09, -37.25 70.2, -36.16 88.04 M-34.62 56.24 C-35.33 64.7, -35.74 71.62, -36.41 86.32" stroke="#000000" stroke-width="1" fill="none"></path></g><g transform="translate(162.328125 59.28515625) rotate(0 -17.676503585078706 42.92654793892987)"><path d="M-16.01 63.96 C-22.06 69.72, -27.36 74.02, -36.16 88.04 M-15.47 63.63 C-20.94 70.44, -26.08 75.54, -36.41 86.32" stroke="#000000" stroke-width="1" fill="none"></path></g></g><mask></mask><g transform="translate(57.8515625 163.8515625) rotate(0 65.65995788574219 12.5)"><text x="0" y="0" font-family="Virgil, Segoe UI Emoji" font-size="20px" fill="#000000" text-anchor="start" style="white-space: pre;" direction="ltr" dominant-baseline="text-before-edge">l rwx rwx rwx</text></g><g stroke-linecap="round"><g transform="translate(233.58984375 53.26953125) rotate(0 14.808308406919252 -0.032558469879433005)"><path d="M-1.05 -0.93 C4.09 -1.25, 25.49 -1.14, 30.67 -1.26 M0.59 1.2 C5.58 0.99, 24.31 0.42, 29.64 0.09" stroke="#000000" stroke-width="1" fill="none"></path></g></g><mask></mask><g stroke-linecap="round"><g transform="translate(250.61328125 55.0625) rotate(0 0.6531341297996391 38.55895521496424)"><path d="M-0.35 0.82 C-0.42 13.41, 0.68 63, 0.72 75.59 M1.66 0.2 C1.38 12.96, 0.41 64.59, -0.05 76.92" stroke="#000000" stroke-width="1" fill="none"></path></g><g transform="translate(250.61328125 55.0625) rotate(0 0.6531341297996391 38.55895521496424)"><path d="M-8.2 49.03 C-6.49 58.89, -1.53 69.94, 0.78 75.77 M-9.32 47.65 C-7.64 53.96, -5.69 59.77, -0.88 77.22" stroke="#000000" stroke-width="1" fill="none"></path></g><g transform="translate(250.61328125 55.0625) rotate(0 0.6531341297996391 38.55895521496424)"><path d="M12.31 49.57 C6 59.16, 2.92 70, 0.78 75.77 M11.19 48.19 C8.77 54.48, 6.61 60.19, -0.88 77.22" stroke="#000000" stroke-width="1" fill="none"></path></g></g><mask></mask><g transform="translate(210.11328125 136.796875) rotate(0 42.72797393798828 10)"><text x="0" y="0" font-family="Virgil, Segoe UI Emoji" font-size="16px" fill="#000000" text-anchor="start" style="white-space: pre;" direction="ltr" dominant-baseline="text-before-edge">User owner</text></g><g stroke-linecap="round"><g transform="translate(270.95703125 53.515625) rotate(0 17.445405712160266 -1.2792211611191817)"><path d="M1.18 -0.19 C7.1 -0.26, 29.1 -0.18, 34.55 -0.41 M0.34 -1.33 C6.21 -1.79, 28.34 -2.46, 33.76 -2.36" stroke="#000000" stroke-width="1" fill="none"></path></g></g><mask></mask><g stroke-linecap="round"><g transform="translate(290.15625 59.4921875) rotate(0 40.43301080348897 36.54916416813154)"><path d="M1.06 -0.42 C14.5 12.16, 67.52 62.4, 80.71 74.79 M0.15 -1.69 C13.45 10.62, 66.67 60.27, 79.85 73.08" stroke="#000000" stroke-width="1" fill="none"></path></g><g transform="translate(290.15625 59.4921875) rotate(0 40.43301080348897 36.54916416813154)"><path d="M51.64 61.39 C61.93 63.91, 68.81 68.2, 78.75 74.27 M52.01 61.36 C61.17 64.55, 70.91 69.05, 79.1 73.94" stroke="#000000" stroke-width="1" fill="none"></path></g><g transform="translate(290.15625 59.4921875) rotate(0 40.43301080348897 36.54916416813154)"><path d="M65.77 46.5 C71.69 53.65, 74.29 62.46, 78.75 74.27 M66.13 46.47 C70.78 54.59, 75.97 63.87, 79.1 73.94" stroke="#000000" stroke-width="1" fill="none"></path></g></g><mask></mask><g transform="translate(346.765625 136.85546875) rotate(0 47.52796936035156 10)"><text x="0" y="0" font-family="Virgil, Segoe UI Emoji" font-size="16px" fill="#000000" text-anchor="start" style="white-space: pre;" direction="ltr" dominant-baseline="text-before-edge">Group owner</text></g><g stroke-linecap="round"><g transform="translate(53.24609375 190.109375) rotate(0 4.913671369883218 -0.33460491492783717)"><path d="M0.11 -0.27 C1.82 -0.55, 9.15 -0.73, 11.12 -0.82 M-1.3 -1.46 C0.19 -1.59, 8.09 0.45, 10.25 0.79" stroke="#000000" stroke-width="1" fill="none"></path></g></g><mask></mask><g stroke-linecap="round"><g transform="translate(58.91796875 197.3515625) rotate(0 -4.92111428462897 36.915413548434174)"><path d="M-0.36 1.04 C-2.36 13.05, -9.13 59.82, -11.06 71.76 M1.65 0.54 C-0.51 12.77, -9.11 61.58, -11.5 73.3" stroke="#000000" stroke-width="1" fill="none"></path></g><g transform="translate(58.91796875 197.3515625) rotate(0 -4.92111428462897 36.915413548434174)"><path d="M-14.66 45.32 C-14.62 55.11, -11.2 67.46, -10.08 71.7 M-16.34 43.8 C-15.11 52.18, -14.22 58.8, -11.41 73.57" stroke="#000000" stroke-width="1" fill="none"></path></g><g transform="translate(58.91796875 197.3515625) rotate(0 -4.92111428462897 36.915413548434174)"><path d="M5.51 49.1 C-2.1 57.4, -6.34 68.31, -10.08 71.7 M3.83 47.58 C-0.44 55.08, -5.03 60.67, -11.41 73.57" stroke="#000000" stroke-width="1" fill="none"></path></g></g><mask></mask><g transform="translate(10 283.76953125) rotate(0 33.415977478027344 10)"><text x="0" y="0" font-family="Virgil, Segoe UI Emoji" font-size="16px" fill="#000000" text-anchor="start" style="white-space: pre;" direction="ltr" dominant-baseline="text-before-edge">File type</text></g><g stroke-linecap="round"><g transform="translate(73.71875 190.53515625) rotate(0 14.320273514837027 -0.4732898699398902)"><path d="M-0.69 -1.15 C4.27 -1.35, 24.5 -0.05, 29.34 -0.11 M1.14 0.86 C5.99 0.84, 23.49 -1.58, 28.42 -1.8" stroke="#000000" stroke-width="1" fill="none"></path></g></g><mask></mask><g stroke-linecap="round"><g transform="translate(115.015625 190.1484375) rotate(0 13.320692217699218 0.1976504384473401)"><path d="M-0.05 0.95 C4.78 1.12, 23.28 1.31, 28.17 1.07 M-1.53 0.4 C3.17 0.21, 21.95 -0.77, 27.02 -0.79" stroke="#000000" stroke-width="1" fill="none"></path></g></g><mask></mask><g stroke-linecap="round"><g transform="translate(156.71875 190.2265625) rotate(0 14.914955693832553 0.9760727421387969)"><path d="M0.52 0.98 C5.75 1.2, 25.6 0.2, 30.49 0.2 M-0.66 0.45 C4.5 0.96, 24.74 1.96, 29.67 1.71" stroke="#000000" stroke-width="1" fill="none"></path></g></g><mask></mask><g transform="translate(82.23046875 193.1015625) rotate(0 5.67999267578125 12.5)"><text x="0" y="0" font-family="Virgil, Segoe UI Emoji" font-size="20px" fill="#000000" text-anchor="start" style="white-space: pre;" direction="ltr" dominant-baseline="text-before-edge">u</text></g><g transform="translate(124.15234375 192.08984375) rotate(0 5.0099945068359375 12.5)"><text x="0" y="0" font-family="Virgil, Segoe UI Emoji" font-size="20px" fill="#000000" text-anchor="start" style="white-space: pre;" direction="ltr" dominant-baseline="text-before-edge">g</text></g><g transform="translate(168.25 193.171875) rotate(0 5.5399932861328125 12.5)"><text x="0" y="0" font-family="Virgil, Segoe UI Emoji" font-size="20px" fill="#000000" text-anchor="start" style="white-space: pre;" direction="ltr" dominant-baseline="text-before-edge">o</text></g></svg>