<svg version="1.1" xmlns="http://www.w3.org/2000/svg" viewBox="0 0 1060.733169555664 46.89453125" width="1060.733169555664" height="46.89453125">
  <!-- svg-source:excalidraw -->
  
  <defs>
    <style class="style-fonts">
      @font-face {
        font-family: "Virgil";
        src: url("https://excalidraw.com/Virgil.woff2");
      }
      @font-face {
        font-family: "Cascadia";
        src: url("https://excalidraw.com/Cascadia.woff2");
      }
    </style>
    
  </defs>
  <g transform="translate(10 10) rotate(0 56.05994415283203 12.5)"><text x="0" y="0" font-family="Virgil, Segoe UI Emoji" font-size="20px" fill="#1971c2" text-anchor="start" style="white-space: pre;" direction="ltr" dominant-baseline="text-before-edge">/etc/profile</text></g><g transform="translate(190.390625 11.89453125) rotate(0 103.23991394042969 12.5)"><text x="0" y="0" font-family="Virgil, Segoe UI Emoji" font-size="20px" fill="#1971c2" text-anchor="start" style="white-space: pre;" direction="ltr" dominant-baseline="text-before-edge">$HOME/.bash_profile</text></g><g transform="translate(458.67578125 10.22265625) rotate(0 93.35993194580078 12.5)"><text x="0" y="0" font-family="Virgil, Segoe UI Emoji" font-size="20px" fill="#1971c2" text-anchor="start" style="white-space: pre;" direction="ltr" dominant-baseline="text-before-edge">$HOME/.bash_login</text></g><g transform="translate(710.23828125 10.55078125) rotate(0 72.85993957519531 12.5)"><text x="0" y="0" font-family="Virgil, Segoe UI Emoji" font-size="20px" fill="#1971c2" text-anchor="start" style="white-space: pre;" direction="ltr" dominant-baseline="text-before-edge">$HOME/.profile</text></g><g transform="translate(910.61328125 11.70703125) rotate(0 70.05994415283203 12.5)"><text x="0" y="0" font-family="Virgil, Segoe UI Emoji" font-size="20px" fill="#2f9e44" text-anchor="start" style="white-space: pre;" direction="ltr" dominant-baseline="text-before-edge">$Home/.bashrc</text></g><g stroke-linecap="round"><g transform="translate(137.3984375 25.207254297442034) rotate(0 18.208181364806364 -0.8226130313357203)"><path d="M0.02 0.03 C6.42 -0.1, 31.46 -1.62, 37.85 -1.67 M-1.43 -1.01 C4.88 -0.9, 30.44 -0.22, 37.02 -0.41" stroke="#e03131" stroke-width="1" fill="none"></path></g><g transform="translate(137.3984375 25.207254297442034) rotate(0 18.208181364806364 -0.8226130313357203)"><path d="M19.35 6.33 C23.03 5.53, 29.74 0.95, 37.71 -0.67 M19.05 5.16 C25.61 2.93, 30.59 1.83, 36.23 -0.25" stroke="#e03131" stroke-width="1" fill="none"></path></g><g transform="translate(137.3984375 25.207254297442034) rotate(0 18.208181364806364 -0.8226130313357203)"><path d="M19.38 -6.55 C22.96 -4.08, 29.66 -5.39, 37.71 -0.67 M19.08 -7.72 C25.72 -5.81, 30.68 -2.77, 36.23 -0.25" stroke="#e03131" stroke-width="1" fill="none"></path></g></g><mask></mask><g stroke-linecap="round"><g transform="translate(412.3828125 24.467315618796874) rotate(0 18.330186914280034 -0.6467816385622882)"><path d="M-0.84 -0.13 C5.3 -0.39, 31.06 -1.23, 37.5 -1.11 M0.92 -1.24 C6.86 -1.42, 30.59 -0.03, 36.64 -0.04" stroke="#e03131" stroke-width="1" fill="none"></path></g><g transform="translate(412.3828125 24.467315618796874) rotate(0 18.330186914280034 -0.6467816385622882)"><path d="M18.71 6.06 C23.78 4.54, 32.76 0.47, 35.72 -0.43 M19.69 6.53 C23.06 5.19, 26.56 3.17, 35.77 -0.69" stroke="#e03131" stroke-width="1" fill="none"></path></g><g transform="translate(412.3828125 24.467315618796874) rotate(0 18.330186914280034 -0.6467816385622882)"><path d="M19.11 -6.7 C24.09 -3.71, 32.93 -3.25, 35.72 -0.43 M20.09 -6.24 C23.48 -4.97, 26.9 -4.4, 35.77 -0.69" stroke="#e03131" stroke-width="1" fill="none"></path></g></g><mask></mask><g stroke-linecap="round"><g transform="translate(660.0234375 24.28686420664144) rotate(0 17.19467674009502 -0.30479899097323937)"><path d="M-0.92 0.43 C5.16 0.13, 29.25 -0.92, 35.31 -1.04 M0.8 -0.4 C6.77 -0.61, 28.46 -0.11, 34.07 0.13" stroke="#e03131" stroke-width="1" fill="none"></path></g><g transform="translate(660.0234375 24.28686420664144) rotate(0 17.19467674009502 -0.30479899097323937)"><path d="M17.67 4.91 C19.38 4.1, 23.94 2.51, 32.41 -0.51 M16.47 5.13 C23.44 4.44, 29.58 2.38, 34.15 -0.65" stroke="#e03131" stroke-width="1" fill="none"></path></g><g transform="translate(660.0234375 24.28686420664144) rotate(0 17.19467674009502 -0.30479899097323937)"><path d="M18.05 -7.36 C19.75 -5.69, 24.24 -4.81, 32.41 -0.51 M16.84 -7.13 C23.72 -3.61, 29.74 -1.46, 34.15 -0.65" stroke="#e03131" stroke-width="1" fill="none"></path></g></g><mask></mask><g stroke-linecap="round"><g transform="translate(865.578125 23.78125) rotate(0 17.39127723310139 0.2085037807687229)"><path d="M0.95 1.06 C6.79 1.24, 29.11 1.1, 34.79 1.01 M0 0.57 C5.75 0.42, 28.42 -0.94, 34.21 -0.71" stroke="#e03131" stroke-width="1" fill="none"></path></g><g transform="translate(865.578125 23.78125) rotate(0 17.39127723310139 0.2085037807687229)"><path d="M19.79 6.38 C23.86 4.85, 27.62 0.71, 33.98 -1.25 M19.02 5.67 C22.41 4.53, 27.02 1.29, 34.52 -0.47" stroke="#e03131" stroke-width="1" fill="none"></path></g><g transform="translate(865.578125 23.78125) rotate(0 17.39127723310139 0.2085037807687229)"><path d="M19.6 -5.28 C23.72 -3.53, 27.53 -4.4, 33.98 -1.25 M18.82 -5.99 C22.33 -4.11, 26.99 -4.33, 34.52 -0.47" stroke="#e03131" stroke-width="1" fill="none"></path></g></g><mask></mask></svg>