<svg version="1.1" xmlns="http://www.w3.org/2000/svg" viewBox="0 0 668.5333557128906 383.0934754498303" width="668.5333557128906" height="383.0934754498303">
  <!-- svg-source:excalidraw -->
  
  <defs>
    <style class="style-fonts">
      @font-face {
        font-family: "Virgil";
        src: url("https://excalidraw.com/Virgil.woff2");
      }
      @font-face {
        font-family: "Cascadia";
        src: url("https://excalidraw.com/Cascadia.woff2");
      }
    </style>
    
  </defs>
  <g transform="translate(298.3334045410156 10) rotate(0 23.27997589111328 12.5)"><text x="0" y="0" font-family="Virgil, Segoe UI Emoji" font-size="20px" fill="#1e1e1e" text-anchor="start" style="white-space: pre;" direction="ltr" dominant-baseline="text-before-edge">tmux</text></g><g transform="translate(146.7333984375 107.80001831054688) rotate(0 34.809959411621094 12.5)"><text x="0" y="0" font-family="Virgil, Segoe UI Emoji" font-size="20px" fill="#1e1e1e" text-anchor="start" style="white-space: pre;" direction="ltr" dominant-baseline="text-before-edge">Session</text></g><g transform="translate(258.5233840942383 105.89999389648438) rotate(0 69.929931640625 12.5)"><text x="0" y="0" font-family="Virgil, Segoe UI Emoji" font-size="20px" fill="#2f9e44" text-anchor="start" style="white-space: pre;" direction="ltr" dominant-baseline="text-before-edge">Active Session</text></g><g transform="translate(429.5235061645508 105.70001220703125) rotate(0 34.809959411621094 12.5)"><text x="0" y="0" font-family="Virgil, Segoe UI Emoji" font-size="20px" fill="#1e1e1e" text-anchor="start" style="white-space: pre;" direction="ltr" dominant-baseline="text-before-edge">Session</text></g><g transform="translate(528.7234573364258 110.36663818359375) rotate(0 34.809959411621094 12.5)"><text x="0" y="0" font-family="Virgil, Segoe UI Emoji" font-size="20px" fill="#1e1e1e" text-anchor="start" style="white-space: pre;" direction="ltr" dominant-baseline="text-before-edge">Session</text></g><g stroke-linecap="round" transform="translate(10 263.4000549316406) rotate(0 85.066650390625 52.800018310546875)"><path d="M1.01 0.62 C52.36 0.18, 105.05 2.81, 168.8 -1.92 M-0.13 -0.04 C48.27 -0.88, 98.16 0.15, 169.22 0.82 M168.52 -0.51 C172.53 39.74, 170.84 78.33, 168.44 105.81 M170.9 -0.77 C171.21 22.38, 170.37 44.34, 169.26 105.47 M168.69 106.45 C127.31 105.07, 87.42 106.36, -1.76 107.38 M169.22 105.12 C118.93 105.56, 66.77 105.81, -0.52 105.1 M0.13 104.42 C2.37 70.85, -0.45 34.68, 0.79 -0.98 M0.17 105.51 C0.81 63.42, 0.58 20.82, 0.1 0.75" stroke="#1e1e1e" stroke-width="1" fill="none"></path></g><g stroke-linecap="round" transform="translate(248.06674194335938 264.66668701171875) rotate(0 85.066650390625 52.800018310546875)"><path d="M0 0 C0 0, 0 0, 0 0 M0 0 C0 0, 0 0, 0 0 M-0.88 6.03 C1.22 4.72, 2.37 3.09, 5.18 0.74 M0.11 6.43 C1.92 4.73, 3.12 2.55, 4.71 0.43 M0.97 12.2 C4.24 6.99, 8.29 3.08, 10.09 1.56 M-0.16 12.71 C3.27 8.45, 5.83 5.42, 10.58 0.04 M1.14 17.48 C3.45 15.8, 7.36 9.5, 15.5 -1.67 M0.44 19.22 C4.87 13.03, 9.99 7.46, 15.75 0.59 M-0.97 23.83 C8.11 14.83, 15.86 6.21, 19.67 -0.37 M0.69 23.36 C8.03 16.1, 14.33 6.69, 20.6 0.16 M0.56 29.25 C11.94 20.43, 18.42 6.84, 27.66 1.52 M-0.01 30.74 C7.9 22.22, 13.73 14.36, 26.88 -0.17 M0.69 35.83 C8.89 22.69, 22.8 12.58, 33.44 -1.82 M-1.06 37.06 C9.17 26.97, 16.44 16.92, 31.7 -0.42 M1.49 42.24 C12.62 29.98, 24.89 16.38, 38.34 -1.51 M0.35 42.43 C12.84 26.86, 28.51 11.52, 37.31 0.28 M-1.9 48.08 C16.79 33.49, 31.2 13.49, 44.24 -1.89 M0.32 49.63 C11.36 33.7, 25.1 19.66, 43.42 -0.37 M-0.85 54.72 C15.29 34.26, 34.09 13.75, 48.11 -0.36 M-0.06 54.73 C9.12 43.87, 19.25 32.25, 47.03 0.07 M1.42 61.49 C15.68 42.21, 31.86 26.05, 51.22 0.73 M-0.95 61.08 C19.24 39.25, 38.73 15.44, 52.71 0.74 M-1.7 66.51 C13.45 51.32, 27.06 35.77, 57.71 -1.79 M-0.06 67.95 C16.5 46.47, 34.89 27.02, 58.45 -0.58 M1.67 71.05 C12.32 56.05, 28.37 41.11, 63.74 0.19 M0.41 72.75 C23.16 48.97, 44.05 24.51, 63.94 0.44 M-0.15 79.98 C22.79 54.76, 41.14 27.95, 68.1 -1.77 M-1.11 79.23 C21.17 55.64, 40.5 32.21, 68.4 0.65 M2.03 86.55 C20.71 58.89, 45.17 34.88, 73.34 -0.57 M0.09 84.09 C14.71 69.16, 29.39 50.57, 74.88 -0.67 M0.93 92.59 C17.28 72.81, 33.97 54.94, 80.4 -1.44 M0.8 91.05 C25.96 60.54, 52.28 30.08, 80.09 0.16 M1.23 97.33 C17.01 77.31, 35.12 56.74, 85.74 -1.79 M-0.46 97.39 C32.58 61.24, 64.74 22.55, 84.7 -0.89 M1.52 101.84 C32.64 65.73, 66.03 27.47, 91.94 0.87 M-0.3 104.25 C22.99 75.66, 46.6 48.38, 89.16 0.45 M2.13 107.06 C22.65 81.08, 44.66 57.23, 96.85 1.09 M2.55 108.5 C32.65 73.01, 62.51 38.19, 95.99 0.6 M7 105.75 C34.41 76.78, 62.31 44.56, 100.22 1.62 M8.28 106.46 C33.27 79.5, 56.7 49.41, 101.64 0.14 M14.38 107.15 C43.89 70.55, 76.14 33.19, 104.78 1.47 M11.92 108.35 C35.03 80.52, 60.25 53.3, 106.74 -0.31 M17.78 107.99 C47.73 73.03, 76.13 40.99, 110.94 0.11 M17.46 107.21 C37.04 84.86, 54.86 63.15, 111.97 -0.1 M21.39 108.46 C48.71 78.08, 72.66 45.95, 117.16 2.3 M22.44 106.57 C46.81 80.55, 68.51 55.73, 115.68 0.11 M29.13 108.27 C48.76 84.04, 67.72 61.75, 121.97 -1.55 M28.23 106.4 C53.41 78.2, 76.98 50.33, 120.99 0.53 M35.31 106.84 C60.04 77.23, 87.67 43.15, 125.78 1.06 M33.84 107.07 C67.01 70.15, 98.83 32.83, 126.92 0.44 M37.76 107.36 C79.28 65.54, 115.38 20.7, 131.39 1.54 M40.27 107.24 C70.53 72.19, 103.07 35.03, 131.98 0.89 M44.45 108.96 C64.43 84.62, 84.72 63.6, 138.64 -1.65 M44.25 107.85 C66.19 83.1, 88.4 56.09, 138.03 0.62 M50.59 106.82 C81.6 69.87, 114.6 33.1, 141.46 1.12 M50.65 108.02 C72.07 83.53, 93.19 60.05, 142.58 -0.03 M53.31 108.3 C90.18 66.84, 125.67 23.89, 146.59 -1.21 M54.21 107.01 C74.12 85.48, 93.62 64.82, 148.61 0.9 M60.72 105.05 C88.74 72.21, 119.88 41.01, 154.62 -0.28 M59.88 106.13 C81.13 80.16, 103.32 55.88, 152.86 0.82 M66.59 109.15 C92.4 72.87, 121.15 41.08, 158.67 -0.17 M64.65 106.73 C96.19 71.87, 127.68 36.24, 159.68 0.65 M71.44 105.22 C96.32 77.91, 124.85 49.14, 165.49 -1.3 M71.83 106.07 C110.29 64.92, 146.8 22.03, 165.3 0.62 M77.18 106.6 C94.65 86.88, 113.23 66.09, 170.11 -0.27 M76.92 107.31 C105.7 74.4, 134.33 39.97, 169.67 0.33 M79.57 108.12 C119.15 65.37, 154.18 24.08, 174.94 0.49 M81.17 108.17 C102.55 82.75, 124.41 58.05, 172.8 2.87 M86.14 106.57 C107.69 80.14, 129.84 55.34, 171.1 9.87 M86.78 107.12 C110.32 81.92, 132.93 55.7, 173.2 7.79 M90.08 109.05 C116.25 80.12, 141.01 51.42, 170.75 16.37 M91.91 107.6 C123.31 71.32, 154.03 34.53, 173.44 15.22 M98.73 105.8 C124.5 74.65, 151.66 41, 173.18 21.59 M98.38 106.64 C120.7 80.09, 143.81 53.43, 173.43 21.14 M104.17 106.4 C121.03 88.81, 136.83 67.96, 173.96 28.8 M103.5 106.88 C118.11 90.39, 133.25 74.7, 172.75 27.8 M108.39 107.82 C122.05 92.36, 134.58 74.17, 173.42 31.81 M108.31 106.43 C133.17 79.67, 156.23 51.73, 172.31 32.36 M113.87 106.61 C133.94 82.76, 150.37 60.62, 171.29 39.14 M113.46 106.87 C133.56 83.81, 155.2 60.17, 172.17 38.89 M120.75 106.98 C140.94 84.19, 160.93 62.4, 171.14 46.82 M119.52 107.15 C139.26 82.94, 159.86 59.1, 173.21 45.02 M125.42 108.95 C136.76 91.09, 152 72.95, 174.31 50.81 M124.73 107.53 C141.59 85.39, 162.23 64.84, 172.2 50.12 M129.64 108.45 C147.31 87.9, 161.69 67.62, 173.81 55.41 M129.39 107.55 C141.81 91.67, 156.52 76.17, 172.91 57.54 M135.22 109.48 C148.2 91.96, 158.99 79.47, 174.78 62.04 M133.63 107.92 C148.57 89.89, 163.95 72.98, 173.76 63.22 M141.06 108.2 C149.43 92.76, 160.88 82.79, 173.13 69.47 M139.73 106.48 C149.12 97.06, 158.8 84.37, 173.63 69.7 M145.87 109.09 C153.23 101.96, 158.93 91.7, 171.99 74.62 M145.91 108.16 C154.69 97.23, 162.83 85.94, 173.51 76.76 M149.21 109.03 C155.41 102.49, 159.91 94.43, 171.64 80.95 M150.7 106.88 C156.68 99.5, 164.92 91.52, 173.62 81.61 M154.17 109.48 C160.3 99.48, 164.59 94.93, 171.38 86.89 M154.71 107.51 C162.66 99.97, 168.02 93.06, 172.48 87.13 M160.55 108.4 C164.79 105.22, 166.7 102.38, 173.96 94.5 M160.96 107.72 C164.25 103.61, 167.9 98.95, 172.62 94.38 M166.69 108.3 C167.18 105.56, 168.64 104.36, 172.74 99.09 M166.43 107.88 C167.76 105.58, 169.36 104.61, 172.5 99.5" stroke="#b2f2bb" stroke-width="0.5" fill="none"></path><path d="M-0.82 0.11 C37.35 0.95, 74.41 1.03, 171.53 1.17 M0.62 0.12 C57.01 -1.35, 111.19 -1.06, 169.82 0.58 M171.14 0.81 C169.71 21.97, 169.54 44.01, 169.61 106.59 M170.11 -0.89 C169.96 36.05, 169.83 71.26, 170.54 105.42 M171.55 106.3 C105.82 106.35, 44.04 105.28, 0.32 104.8 M170.33 104.79 C110.88 104.93, 51.27 106.16, -0.86 105.46 M1.25 103.89 C2.01 80.27, -1.57 50.08, -0.99 1.27 M-0.53 105.53 C-0.6 65.81, 0.82 26.09, -0.99 -0.7" stroke="#2f9e44" stroke-width="1" fill="none"></path></g><g stroke-linecap="round" transform="translate(488.4000549316406 266.06671142578125) rotate(0 85.066650390625 52.800018310546875)"><path d="M1.91 -1.66 C46.03 1.98, 89.25 1.17, 168.16 0.58 M-0.85 -0.87 C61.04 -1.99, 123.8 -2.58, 170.7 -0.2 M169.94 -1.19 C170.23 36.46, 171.55 74.73, 168.33 106.51 M170.5 0.65 C169.09 31.85, 169.01 63.62, 169.71 105.99 M170.22 106.73 C106.05 105.32, 43.13 105.98, 0.31 105.14 M169.85 105.47 C116.7 104.95, 61.23 105.37, -0.33 106.48 M1.79 103.69 C-0.38 66.32, 2.17 30.5, -0.25 0.73 M-0.32 106.29 C-0.5 78.48, -0.62 52.8, 0.62 -0.51" stroke="#1e1e1e" stroke-width="1" fill="none"></path></g><g stroke-linecap="round"><g transform="translate(570.0000915527344 266.6000671386719) rotate(0 1.498967970625813 52.51858286932111)"><path d="M1.62 -1.46 C3.11 25.48, 1.59 55.06, 2.14 106.49 M0.7 -0.78 C0.75 38.95, 1.13 79.31, 1.19 105.04" stroke="#1e1e1e" stroke-width="1" fill="none"></path></g></g><mask></mask><g stroke-linecap="round"><g transform="translate(489.4667663574219 318.33343505859375) rotate(0 84.22412039060146 0.20452026369321175)"><path d="M1.37 1.52 C35.45 -2.45, 74.75 -0.83, 168.95 -0.57 M-0.5 0.27 C53.32 2.07, 107.68 1.16, 168.42 -0.37" stroke="#1e1e1e" stroke-width="1" fill="none"></path></g></g><mask></mask><g stroke-linecap="round"><g transform="translate(247.86672973632812 332.2000732421875) rotate(0 85.45275086723268 0.025543334893882275)"><path d="M0.16 1.49 C59.87 -0.01, 116.43 -0.58, 170.76 1.11 M-0.03 -0.21 C64.3 0.96, 129.2 -0.77, 170.94 -1.44" stroke="#2f9e44" stroke-width="1" fill="none"></path></g></g><mask></mask><g stroke-linecap="round"><g transform="translate(298.0000915527344 331.6667175292969) rotate(0 -0.26780548765549383 20.534228685311973)"><path d="M0.25 1.65 C-0.31 12.65, 1.33 27.38, -0.46 40.16 M-0.94 0.9 C-0.17 12.05, 0.3 26.11, 0.05 38.75" stroke="#2f9e44" stroke-width="1" fill="none"></path></g></g><mask></mask><g stroke-linecap="round"><g transform="translate(363.0667419433594 331.1334228515625) rotate(0 -0.2508857725188136 19.414382728748024)"><path d="M-1.73 0.76 C-0.62 10.92, 1.34 24.53, -0.57 38.59 M0.49 0.24 C0.34 9.53, 0.89 17.75, 1.22 37.28" stroke="#2f9e44" stroke-width="1" fill="none"></path></g></g><mask></mask><g stroke-linecap="round"><g transform="translate(136.40005493164062 263.4000549316406) rotate(0 -0.9932900123901334 53.326315646991134)"><path d="M-1.13 0.72 C0.31 36.64, -2.48 76.49, -1.94 105.71 M0.02 0.1 C0.18 22.92, -1.67 46.62, -0.94 106.55" stroke="#1e1e1e" stroke-width="1" fill="none"></path></g></g><mask></mask><g transform="translate(70.86672973632812 235.73336791992188) rotate(0 31.639976501464844 12.5)"><text x="0" y="0" font-family="Virgil, Segoe UI Emoji" font-size="20px" fill="#1e1e1e" text-anchor="start" style="white-space: pre;" direction="ltr" dominant-baseline="text-before-edge">Window</text></g><g transform="translate(274.6634063720703 233.89999389648438) rotate(0 66.75994873046875 12.5)"><text x="0" y="0" font-family="Virgil, Segoe UI Emoji" font-size="20px" fill="#2f9e44" text-anchor="start" style="white-space: pre;" direction="ltr" dominant-baseline="text-before-edge">Active Window</text></g><g transform="translate(545.8634185791016 235.63333129882812) rotate(0 31.639976501464844 12.5)"><text x="0" y="0" font-family="Virgil, Segoe UI Emoji" font-size="20px" fill="#1e1e1e" text-anchor="start" style="white-space: pre;" direction="ltr" dominant-baseline="text-before-edge">Window</text></g><g transform="translate(53.600067138671875 306.7332458496094) rotate(0 18.735992431640625 10)"><text x="0" y="0" font-family="Virgil, Segoe UI Emoji" font-size="16px" fill="#1e1e1e" text-anchor="start" style="white-space: pre;" direction="ltr" dominant-baseline="text-before-edge">Pane</text></g><g transform="translate(310.93072509765625 286.2000427246094) rotate(0 18.735992431640625 10)"><text x="0" y="0" font-family="Virgil, Segoe UI Emoji" font-size="16px" fill="#2f9e44" text-anchor="start" style="white-space: pre;" direction="ltr" dominant-baseline="text-before-edge">Pane</text></g><g transform="translate(139.19741821289062 307.5333251953125) rotate(0 18.735992431640625 10)"><text x="0" y="0" font-family="Virgil, Segoe UI Emoji" font-size="16px" fill="#1e1e1e" text-anchor="start" style="white-space: pre;" direction="ltr" dominant-baseline="text-before-edge">Pane</text></g><g transform="translate(513.0640869140625 286.0000305175781) rotate(0 18.735992431640625 10)"><text x="0" y="0" font-family="Virgil, Segoe UI Emoji" font-size="16px" fill="#1e1e1e" text-anchor="start" style="white-space: pre;" direction="ltr" dominant-baseline="text-before-edge">Pane</text></g><g transform="translate(369.6640625 342.7333068847656) rotate(0 18.735992431640625 10)"><text x="0" y="0" font-family="Virgil, Segoe UI Emoji" font-size="16px" fill="#2f9e44" text-anchor="start" style="white-space: pre;" direction="ltr" dominant-baseline="text-before-edge">Pane</text></g><g transform="translate(311.46405029296875 342.0000305175781) rotate(0 18.735992431640625 10)"><text x="0" y="0" font-family="Virgil, Segoe UI Emoji" font-size="16px" fill="#2f9e44" text-anchor="start" style="white-space: pre;" direction="ltr" dominant-baseline="text-before-edge">Pane</text></g><g transform="translate(596.7974853515625 335.1333312988281) rotate(0 18.735992431640625 10)"><text x="0" y="0" font-family="Virgil, Segoe UI Emoji" font-size="16px" fill="#1e1e1e" text-anchor="start" style="white-space: pre;" direction="ltr" dominant-baseline="text-before-edge">Pane</text></g><g transform="translate(596.330810546875 286.5333557128906) rotate(0 18.735992431640625 10)"><text x="0" y="0" font-family="Virgil, Segoe UI Emoji" font-size="16px" fill="#1e1e1e" text-anchor="start" style="white-space: pre;" direction="ltr" dominant-baseline="text-before-edge">Pane</text></g><g transform="translate(253.93075561523438 341.4666442871094) rotate(0 18.735992431640625 10)"><text x="0" y="0" font-family="Virgil, Segoe UI Emoji" font-size="16px" fill="#2f9e44" text-anchor="start" style="white-space: pre;" direction="ltr" dominant-baseline="text-before-edge">Pane</text></g><g transform="translate(512.7307739257812 334.2666320800781) rotate(0 18.735992431640625 10)"><text x="0" y="0" font-family="Virgil, Segoe UI Emoji" font-size="16px" fill="#1e1e1e" text-anchor="start" style="white-space: pre;" direction="ltr" dominant-baseline="text-before-edge">Pane</text></g><g stroke-linecap="round"><g transform="translate(314.5334167480469 42.60002136230469) rotate(0 -69.41951544210315 29.955759251490235)"><path d="M1.93 1.56 C-49.79 22.71, -102.28 46.26, -140.77 59.09 M-0.69 0.63 C-54 21.73, -107.54 45.38, -139.38 59.28" stroke="#1e1e1e" stroke-width="1" fill="none"></path></g><g transform="translate(314.5334167480469 42.60002136230469) rotate(0 -69.41951544210315 29.955759251490235)"><path d="M-115.72 40.16 C-124.03 46.34, -133.15 55.86, -140.95 59.7 M-118.34 39.23 C-126.32 45.94, -134.81 55.02, -139.56 59.9" stroke="#1e1e1e" stroke-width="1" fill="none"></path></g><g transform="translate(314.5334167480469 42.60002136230469) rotate(0 -69.41951544210315 29.955759251490235)"><path d="M-107.51 58.97 C-118.83 58.27, -130.98 60.85, -140.95 59.7 M-110.12 58.03 C-121.13 57.52, -132.77 59.38, -139.56 59.9" stroke="#1e1e1e" stroke-width="1" fill="none"></path></g></g><mask></mask><g stroke-linecap="round"><g transform="translate(323.6001281738281 45.800018310546875) rotate(0 1.2978015230075357 27.88809783477336)"><path d="M0.76 1.28 C2.38 12.18, 3.02 28.08, 0.84 56.12 M0.36 -0.34 C1.46 18.78, 1.51 34.63, 1.7 55.9" stroke="#2f9e44" stroke-width="1" fill="none"></path></g><g transform="translate(323.6001281738281 45.800018310546875) rotate(0 1.2978015230075357 27.88809783477336)"><path d="M-7.18 31.43 C-3.74 34.96, -1.36 43.56, -0.12 57.09 M-7.58 29.81 C-4.25 39.48, -1.93 45.87, 0.74 56.87" stroke="#2f9e44" stroke-width="1" fill="none"></path></g><g transform="translate(323.6001281738281 45.800018310546875) rotate(0 1.2978015230075357 27.88809783477336)"><path d="M11.63 31.26 C10.36 35, 8.04 43.65, -0.12 57.09 M11.23 29.63 C8.47 39.36, 4.69 45.81, 0.74 56.87" stroke="#2f9e44" stroke-width="1" fill="none"></path></g></g><mask></mask><g stroke-linecap="round"><g transform="translate(326.2667541503906 44.733367919921875) rotate(0 66.83553004544228 27.20871574897319)"><path d="M1.69 -1.65 C30.29 12.72, 59.61 24.53, 132.72 54.45 M0.95 0.83 C36.16 15.22, 71.75 30.85, 131.84 56.07" stroke="#1e1e1e" stroke-width="1" fill="none"></path></g><g transform="translate(326.2667541503906 44.733367919921875) rotate(0 66.83553004544228 27.20871574897319)"><path d="M103.57 52.9 C109.36 55.12, 116.38 55.11, 132.83 55.05 M102.83 55.37 C110.74 54.9, 118.57 55.82, 131.95 56.67" stroke="#1e1e1e" stroke-width="1" fill="none"></path></g><g transform="translate(326.2667541503906 44.733367919921875) rotate(0 66.83553004544228 27.20871574897319)"><path d="M111.56 33.99 C115.77 40.33, 121.04 44.46, 132.83 55.05 M110.82 36.47 C116.39 41.14, 122.05 47.22, 131.95 56.67" stroke="#1e1e1e" stroke-width="1" fill="none"></path></g></g><mask></mask><g stroke-linecap="round"><g transform="translate(333.2001037597656 42.066680908203125) rotate(0 113.29439107386162 29.60741600390641)"><path d="M-0.47 -1.34 C77.41 20.05, 151.9 40.3, 227.21 60.22 M-0.62 -0.11 C67.09 19.25, 133.29 36.4, 226.25 60.56" stroke="#1e1e1e" stroke-width="1" fill="none"></path></g><g transform="translate(333.2001037597656 42.066680908203125) rotate(0 113.29439107386162 29.60741600390641)"><path d="M195.82 61.79 C207.89 61.28, 215.67 60.19, 227.53 60.5 M195.64 63.25 C205.22 62.67, 213.6 61.15, 226.39 60.9" stroke="#1e1e1e" stroke-width="1" fill="none"></path></g><g transform="translate(333.2001037597656 42.066680908203125) rotate(0 113.29439107386162 29.60741600390641)"><path d="M200.99 41.93 C211.23 48.12, 217.26 53.73, 227.53 60.5 M200.81 43.39 C209.06 48.61, 215.92 52.93, 226.39 60.9" stroke="#1e1e1e" stroke-width="1" fill="none"></path></g></g><mask></mask><g stroke-linecap="round"><g transform="translate(327.8667907714844 135.4000244140625) rotate(0 1.108246716670692 44.640364659018815)"><path d="M0.92 -0.13 C0.42 21.1, 0.62 44.46, 2.51 89.85 M-0.29 -0.57 C0.28 22.81, 0.55 45.98, -0.1 89.3" stroke="#2f9e44" stroke-width="1" fill="none"></path></g><g transform="translate(327.8667907714844 135.4000244140625) rotate(0 1.108246716670692 44.640364659018815)"><path d="M-9.15 60.87 C-7.51 66.67, -4.9 74.55, 1.87 90.08 M-10.36 60.43 C-7.65 68.34, -4.96 75.98, -0.74 89.53" stroke="#2f9e44" stroke-width="1" fill="none"></path></g><g transform="translate(327.8667907714844 135.4000244140625) rotate(0 1.108246716670692 44.640364659018815)"><path d="M11.37 61.09 C7.78 66.69, 5.16 74.5, 1.87 90.08 M10.16 60.64 C7.63 68.35, 5.06 75.93, -0.74 89.53" stroke="#2f9e44" stroke-width="1" fill="none"></path></g></g><mask></mask><g stroke-linecap="round"><g transform="translate(319.8667907714844 136.4666748046875) rotate(0 -100.49153247596814 44.703458377217146)"><path d="M0.8 1.32 C-78.55 33.95, -152.97 66.2, -201.78 88.01 M0.18 0.02 C-72.94 33.08, -144.14 64.17, -201.14 89.39" stroke="#1e1e1e" stroke-width="1" fill="none"></path></g><g transform="translate(319.8667907714844 136.4666748046875) rotate(0 -100.49153247596814 44.703458377217146)"><path d="M-178.57 70.15 C-188.97 77.94, -194.33 84.1, -201.35 88.79 M-179.29 68.64 C-188.31 76.22, -195.77 83.28, -200.61 90.38" stroke="#1e1e1e" stroke-width="1" fill="none"></path></g><g transform="translate(319.8667907714844 136.4666748046875) rotate(0 -100.49153247596814 44.703458377217146)"><path d="M-170.29 88.92 C-183.66 89.49, -192.19 88.49, -201.35 88.79 M-171 87.42 C-182.79 88.43, -193.17 88.84, -200.61 90.38" stroke="#1e1e1e" stroke-width="1" fill="none"></path></g></g><mask></mask><g stroke-linecap="round"><g transform="translate(336.4001159667969 139.66668701171875) rotate(0 118.75811187434692 43.12712730143028)"><path d="M-1.6 -1.5 C91.13 32.34, 184.6 65.37, 238.58 87.75 M-0.02 -0.09 C69.85 25.43, 138.91 49.88, 239.12 87.42" stroke="#1e1e1e" stroke-width="1" fill="none"></path></g><g transform="translate(336.4001159667969 139.66668701171875) rotate(0 118.75811187434692 43.12712730143028)"><path d="M207.14 85.39 C219.71 86.77, 232.83 85.92, 238.69 87.78 M209.1 87.14 C218.64 87.61, 226.72 86.4, 239.35 87.37" stroke="#1e1e1e" stroke-width="1" fill="none"></path></g><g transform="translate(336.4001159667969 139.66668701171875) rotate(0 118.75811187434692 43.12712730143028)"><path d="M214.27 66.15 C224.01 75, 234.38 81.58, 238.69 87.78 M216.23 67.9 C223.59 73.99, 229.59 78.38, 239.35 87.37" stroke="#1e1e1e" stroke-width="1" fill="none"></path></g></g><mask></mask></svg>